<svg xmlns="http://www.w3.org/2000/svg" viewBox="0 0 200 160" width="200" height="160">
  <style>
    .dot { fill: #1a56e8; }
  </style>

  <!-- Body outline dots -->
  <circle class="dot" cx="20"  cy="80"  r="3"/>
  <circle class="dot" cx="35"  cy="80"  r="3"/>
  <circle class="dot" cx="50"  cy="80"  r="3"/>
  <circle class="dot" cx="65"  cy="80"  r="3"/>
  <circle class="dot" cx="80"  cy="80"  r="3"/>
  <circle class="dot" cx="95"  cy="80"  r="3"/>
  <circle class="dot" cx="110" cy="80"  r="3"/>
  <circle class="dot" cx="125" cy="80"  r="3"/>
  <circle class="dot" cx="140" cy="80"  r="3"/>
  <circle class="dot" cx="155" cy="80"  r="3"/>
  <circle class="dot" cx="170" cy="80"  r="3"/>

  <!-- Top of body -->
  <circle class="dot" cx="20"  cy="50"  r="3"/>
  <circle class="dot" cx="35"  cy="50"  r="3"/>
  <circle class="dot" cx="50"  cy="50"  r="3"/>
  <circle class="dot" cx="65"  cy="50"  r="3"/>
  <circle class="dot" cx="80"  cy="50"  r="3"/>
  <circle class="dot" cx="95"  cy="50"  r="3"/>
  <circle class="dot" cx="110" cy="50"  r="3"/>
  <circle class="dot" cx="125" cy="50"  r="3"/>
  <circle class="dot" cx="140" cy="50"  r="3"/>
  <circle class="dot" cx="155" cy="50"  r="3"/>
  <circle class="dot" cx="170" cy="50"  r="3"/>

  <!-- Left side -->
  <circle class="dot" cx="20" cy="55" r="3"/>
  <circle class="dot" cx="20" cy="60" r="3"/>
  <circle class="dot" cx="20" cy="65" r="3"/>
  <circle class="dot" cx="20" cy="70" r="3"/>
  <circle class="dot" cx="20" cy="75" r="3"/>

  <!-- Right side -->
  <circle class="dot" cx="170" cy="55" r="3"/>
  <circle class="dot" cx="170" cy="60" r="3"/>
  <circle class="dot" cx="170" cy="65" r="3"/>
  <circle class="dot" cx="170" cy="70" r="3"/>
  <circle class="dot" cx="170" cy="75" r="3"/>

  <!-- Chimney -->
  <circle class="dot" cx="140" cy="45" r="3"/>
  <circle class="dot" cx="140" cy="38" r="3"/>
  <circle class="dot" cx="140" cy="31" r="3"/>
  <circle class="dot" cx="135" cy="31" r="3"/>
  <circle class="dot" cx="145" cy="31" r="3"/>

  <!-- Window left -->
  <circle class="dot" cx="45" cy="58" r="3"/>
  <circle class="dot" cx="55" cy="58" r="3"/>
  <circle class="dot" cx="45" cy="68" r="3"/>
  <circle class="dot" cx="55" cy="68" r="3"/>
  <circle class="dot" cx="45" cy="63" r="3"/>
  <circle class="dot" cx="55" cy="63" r="3"/>

  <!-- Window right -->
  <circle class="dot" cx="95"  cy="58" r="3"/>
  <circle class="dot" cx="105" cy="58" r="3"/>
  <circle class="dot" cx="95"  cy="68" r="3"/>
  <circle class="dot" cx="105" cy="68" r="3"/>
  <circle class="dot" cx="95"  cy="63" r="3"/>
  <circle class="dot" cx="105" cy="63" r="3"/>

  <!-- Wheels -->
  <circle class="dot" cx="40"  cy="100" r="3"/>
  <circle class="dot" cx="40"  cy="110" r="3"/>
  <circle class="dot" cx="50"  cy="95"  r="3"/>
  <circle class="dot" cx="60"  cy="93"  r="3"/>
  <circle class="dot" cx="70"  cy="95"  r="3"/>
  <circle class="dot" cx="75"  cy="100" r="3"/>
  <circle class="dot" cx="75"  cy="110" r="3"/>
  <circle class="dot" cx="70"  cy="115" r="3"/>
  <circle class="dot" cx="60"  cy="117" r="3"/>
  <circle class="dot" cx="50"  cy="115" r="3"/>

  <circle class="dot" cx="120" cy="100" r="3"/>
  <circle class="dot" cx="120" cy="110" r="3"/>
  <circle class="dot" cx="130" cy="95"  r="3"/>
  <circle class="dot" cx="140" cy="93"  r="3"/>
  <circle class="dot" cx="150" cy="95"  r="3"/>
  <circle class="dot" cx="155" cy="100" r="3"/>
  <circle class="dot" cx="155" cy="110" r="3"/>
  <circle class="dot" cx="150" cy="115" r="3"/>
  <circle class="dot" cx="140" cy="117" r="3"/>
  <circle class="dot" cx="130" cy="115" r="3"/>
</svg>
